<?xml version="1.0" encoding="UTF-8"?>
<svg id="Calque_1" data-name="Calque 1" xmlns="http://www.w3.org/2000/svg" viewBox="0 0 512 512">
  <defs>
    <style>
      .cls-1 {
        fill: none;
        stroke: #fb8000;
        stroke-linejoin: round;
        stroke-width: 24.68px;
      }

      .cls-2 {
        fill: #fb8000;
      }
    </style>
  </defs>
  <polygon class="cls-1" points="387.21 265.26 229.32 264.45 174.85 421.65 338.18 418.22 387.21 265.26"/>
  <polygon class="cls-1" points="103.28 168.39 229.78 264.61 175.32 421.81 49.12 318.07 103.28 168.39"/>
  <polygon class="cls-1" points="233.32 90.19 65.91 93.53 101.43 164.33 262.45 160.36 233.32 90.19"/>
  <polygon class="cls-1" points="333.43 123.37 462.88 229.56 391.18 263.21 267.13 160.48 333.43 123.37"/>
  <path class="cls-2" d="M105.96,300.74c2.84,8.6.35,17.42-5.56,19.71-5.91,2.28-13.01-2.84-15.84-11.44-2.84-8.6-.35-17.42,5.56-19.71,5.91-2.28,13.01,2.84,15.84,11.44Z"/>
  <path class="cls-2" d="M145.91,289.13c2.84,8.6.35,17.42-5.56,19.71-5.91,2.28-13.01-2.84-15.84-11.44-2.84-8.6-.35-17.42,5.56-19.71,5.91-2.28,13.01,2.84,15.84,11.44Z"/>
  <path class="cls-2" d="M186.07,275.7c2.84,8.6.35,17.42-5.56,19.71s-13.01-2.84-15.84-11.44c-2.84-8.6-.35-17.42,5.56-19.71,5.91-2.28,13.01,2.84,15.84,11.44Z"/>
  <path class="cls-2" d="M304.47,369.52c-7.55,5-11.05,13.47-7.82,18.92,3.23,5.45,11.97,5.82,19.52.82,7.55-5,11.05-13.47,7.82-18.92-3.23-5.45-11.97-5.82-19.52-.82Z"/>
  <path class="cls-2" d="M280.27,335.68c-7.55,5-11.05,13.47-7.82,18.92,3.23,5.45,11.97,5.82,19.52.82,7.55-5,11.05-13.47,7.82-18.92-3.23-5.45-11.97-5.82-19.52-.82Z"/>
  <path class="cls-2" d="M322.16,301.31c-7.55,5-11.05,13.47-7.82,18.92,3.23,5.45,11.97,5.82,19.52.82,7.55-5,11.05-13.47,7.82-18.92-3.23-5.45-11.97-5.82-19.52-.82Z"/>
  <path class="cls-2" d="M235.43,367.41c-7.55,5-11.05,13.47-7.82,18.92,3.23,5.45,11.97,5.82,19.52.82,7.55-5,11.05-13.47,7.82-18.92-3.23-5.45-11.97-5.82-19.52-.82Z"/>
  <path class="cls-2" d="M257.02,300.29c-7.55,5-11.05,13.47-7.82,18.92s11.97,5.82,19.52.82c7.55-5,11.05-13.47,7.82-18.92-3.23-5.45-11.97-5.82-19.52-.82Z"/>
  <polygon class="cls-2" points="382.81 260.31 233.05 258.85 103.28 168.39 267.13 160.48 382.81 260.31"/>
</svg>